<svg width="32" height="32" viewBox="0 0 32 32" fill="none" xmlns="http://www.w3.org/2000/svg">
  <defs>
    <linearGradient id="gradient" x1="0%" y1="0%" x2="100%" y2="100%">
      <stop offset="0%" style="stop-color:#3B82F6;stop-opacity:1" />
      <stop offset="100%" style="stop-color:#8B5CF6;stop-opacity:1" />
    </linearGradient>
  </defs>

  <!-- Background -->
  <rect x="2" y="2" width="28" height="28" rx="6" fill="url(#gradient)"/>

  <!-- Exact same video icon from header, scaled for favicon -->
  <g transform="translate(4, 4) scale(1)">
    <path
      stroke="white"
      strokeLinecap="round"
      strokeLinejoin="round"
      strokeWidth="1.5"
      fill="none"
      d="M15 10l4.553-2.276A1 1 0 0121 8.618v6.764a1 1 0 01-1.447.894L15 14M5 18h8a2 2 0 002-2V8a2 2 0 00-2-2H5a2 2 0 00-2 2v8a2 2 0 002 2z"
    />
  </g>
</svg>